#!OML:ASF H:\LiuWeirdWalks\Patient Classification 1\Patient 1\Session 1\male.ASF
:FULLY-SPECIFIED
:DEGREES
554
root 0.929677 17.5489 -15.4584 1.2201 -4.56525 1.05913
lowerback 8.56228 -0.0304744 0.0515553
upperback 1.52138 0.184153 6.31177
thorax -3.24729 0.11518 6.5696
lowerneck -15.36 2.77687 6.91745
upperneck 17.9638 4.87344 -12.9769
head 8.6341 1.47744 -4.99389
rclavicle -3.18055e-015 1.90833e-014
rhumerus -27.2943 -24.9563 -5.74631
rradius 39.3187
rwrist -4.43729
rhand -19.5419 0.918048
rfingers 7.12502
rthumb 6.78202 -28.9533
lclavicle -3.18055e-015 1.90833e-014
lhumerus -28.5681 26.0728 18.5417
lradius 40.9317
lwrist 9.58718
lhand -17.436 5.06625
lfingers 7.12502
lthumb 8.81463 34.8622
rfemur -5.06056 0.85069 11.3509
rtibia 39.036
rfoot -18.945 -17.0768
rtoes -12.6948
lfemur -9.3144 0.291524 -16.8849
ltibia 35.6811
lfoot -16.9222 15.1638
ltoes -15.5516
555
root 0.944067 17.5529 -15.4232 1.26639 -4.47331 0.963306
lowerback 8.55602 -0.0519247 -0.230592
upperback 1.49296 0.125234 6.1338
thorax -3.2666 0.0888844 6.54803
lowerneck -15.3363 2.79342 6.95957
upperneck 18.0763 4.84001 -12.7052
head 8.65631 1.48972 -4.91276
rclavicle 9.93923e-015 1.27222e-014
rhumerus -27.1538 -24.8826 -5.93934
rradius 39.3439
rwrist -4.47541
rhand -19.5805 0.909511
rfingers 7.12502
rthumb 6.74477 -28.9631
lclavicle 9.93923e-015 1.27222e-014
lhumerus -28.634 26.1028 18.7158
lradius 40.9061
lwrist 9.61062
lhand -17.5988 5.1553
lfingers 7.12502
lthumb 8.65754 34.9578
rfemur -5.4248 0.69163 11.3075
rtibia 39.8585
rfoot -18.5375 -16.6661
rtoes -13.3829
lfemur -9.15293 0.237814 -16.8382
ltibia 35.5025
lfoot -16.9635 15.1486
ltoes -15.5698
556
root 0.958681 17.5572 -15.3882 1.29922 -4.36547 0.863794
lowerback 8.56175 -0.0741006 -0.488058
upperback 1.47548 0.067355 5.95897
thorax -3.28111 0.0626434 6.51566
lowerneck -15.368 2.81122 7.02382
upperneck 18.2127 4.8064 -12.4527
head 8.69809 1.49953 -4.84304
rclavicle -8.15017e-015 -1.43125e-014
rhumerus -27.0356 -24.8708 -6.11371
rradius 39.3796
rwrist -4.49293
rhand -19.6251 0.889104
rfingers 7.12502
rthumb 6.70171 -28.9848
lclavicle -8.15017e-015 -1.43125e-014
lhumerus -28.6742 26.1546 18.9116
lradius 40.8792
lwrist 9.61437
lhand -17.7538 5.23563
lfingers 7.12502
lthumb 8.50791 35.0442
rfemur -5.84402 0.519044 11.2532
rtibia 40.7981
rfoot -18.0692 -16.1888
rtoes -14.1012
lfemur -8.97183 0.147459 -16.794
ltibia 35.3097
lfoot -16.9968 15.1582
ltoes -15.571
557
root 0.973685 17.5619 -15.3532 1.32455 -4.25179 0.763274
lowerback 8.57417 -0.0982849 -0.728836
upperback 1.46414 0.00837709 5.79429
thorax -3.29267 0.0355861 6.48485
lowerneck -15.4004 2.82409 7.10079
upperneck 18.325 4.76918 -12.2439
head 8.7333 1.50492 -4.79067
rclavicle 8.34896e-015 1.59028e-015
rhumerus -26.929 -24.8434 -6.26918
rradius 39.4425
rwrist -4.54828
rhand -19.6681 0.861268
rfingers 7.12502
rthumb 6.66024 -29.014
lclavicle 8.34896e-015 1.59028e-015
lhumerus -28.7136 26.2371 19.1179
lradius 40.84
lwrist 9.57342
lhand -17.8888 5.30658
lfingers 7.12502
lthumb 8.3777 35.1204
rfemur -6.33365 0.319796 11.1828
rtibia 41.864
rfoot -17.5242 -15.6385
rtoes -14.8435
lfemur -8.77208 0.0195131 -16.7572
ltibia 35.0969
lfoot -17.0205 15.2029
ltoes -15.556
558
root 0.98902 17.5667 -15.3182 1.33879 -4.14447 0.673713
lowerback 8.59754 -0.115707 -0.96299
upperback 1.46016 -0.0411246 5.63299
thorax -3.30367 0.0130858 6.453
lowerneck -15.4758 2.83534 7.17389
upperneck 18.4206 4.73001 -12.0514
head 8.77115 1.50671 -4.74313
rclavicle 1.98785e-014 1.74931e-014
rhumerus -26.8466 -24.7989 -6.40163
rradius 39.5307
rwrist -4.64049
rhand -19.7192 0.810765
rfingers 7.12502
rthumb 6.61089 -29.066
lclavicle 1.98785e-014 1.74931e-014
lhumerus -28.7401 26.3177 19.35
lradius 40.8052
lwrist 9.5342
lhand -17.9876 5.35933
lfingers 7.12502
lthumb 8.28229 35.177
rfemur -6.89793 0.093971 11.0843
rtibia 43.0624
rfoot -16.904 -15.021
rtoes -15.5684
lfemur -8.54203 -0.134247 -16.7396
ltibia 34.8524
lfoot -17.0374 15.278
ltoes -15.519
559
root 1.00462 17.5718 -15.2833 1.34579 -4.05557 0.580131
lowerback 8.63989 -0.122465 -1.18044
upperback 1.46281 -0.0747823 5.47855
thorax -3.32017 -0.00165561 6.41742
lowerneck -15.5478 2.83594 7.21547
upperneck 18.4799 4.67743 -11.8468
head 8.79381 1.50212 -4.68649
rclavicle 1.78906e-015 4.77083e-015
rhumerus -26.7827 -24.7756 -6.50597
rradius 39.6226
rwrist -4.69652
rhand -19.7523 0.782712
rfingers 7.12502
rthumb 6.57896 -29.0951
lclavicle 1.78906e-015 4.77083e-015
lhumerus -28.7448 26.4068 19.6015
lradius 40.7602
lwrist 9.4806
lhand -18.0198 5.35748
lfingers 7.12502
lthumb 8.25123 35.1763
rfemur -7.54927 -0.153555 10.9798
rtibia 44.3915
rfoot -16.1742 -14.3665
rtoes -16.2719
lfemur -8.28236 -0.310169 -16.7246
ltibia 34.5708
lfoot -17.0372 15.387
ltoes -15.4616
560
root 1.02084 17.5771 -15.2484 1.34999 -3.97898 0.525079
lowerback 8.68576 -0.120487 -1.42422
upperback 1.47083 -0.0996745 5.32395
thorax -3.33396 -0.0118592 6.39601
lowerneck -15.6084 2.83357 7.21809
upperneck 18.4658 4.62107 -11.6284
head 8.78809 1.49609 -4.61669
rclavicle -1.92821e-014 -2.06736e-014
rhumerus -26.7287 -24.7311 -6.59073
rradius 39.7314
rwrist -4.79902
rhand -19.7821 0.746743
rfingers 7.12502
rthumb 6.5502 -29.132
lclavicle -1.92821e-014 -2.06736e-014
lhumerus -28.7381 26.4701 19.886
lradius 40.7246
lwrist 9.46131
lhand -18.0074 5.33849
lfingers 7.12502
lthumb 8.26317 35.1569
rfemur -8.29209 -0.450472 10.8162
rtibia 45.8448
rfoot -15.3376 -13.665
rtoes -16.8581
lfemur -7.99849 -0.515307 -16.7633
ltibia 34.248
lfoot -17.0126 15.5373
ltoes -15.4032
561
root 1.03749 17.5824 -15.2137 1.34674 -3.9224 0.499556
lowerback 8.75235 -0.111898 -1.68874
upperback 1.48272 -0.117918 5.16983
thorax -3.35595 -0.0183926 6.38679
lowerneck -15.6315 2.83101 7.17721
upperneck 18.46 4.56946 -11.3708
head 8.77695 1.4942 -4.52532
rclavicle 1.63003e-014 -6.99722e-014
rhumerus -26.668 -24.6829 -6.66371
rradius 39.8333
rwrist -4.86536
rhand -19.8051 0.730932
rfingers 7.12502
rthumb 6.52799 -29.1485
lclavicle 1.63003e-014 -6.99722e-014
lhumerus -28.7264 26.5371 20.1794
lradius 40.6807
lwrist 9.42058
lhand -17.9506 5.29323
lfingers 7.12502
lthumb 8.31797 35.1095
rfemur -9.11575 -0.778412 10.6105
rtibia 47.4082
rfoot -14.4072 -12.9348
rtoes -17.2003
lfemur -7.68798 -0.740003 -16.8448
ltibia 33.89
lfoot -16.9624 15.7278
ltoes -15.3411
562
root 1.05428 17.5881 -15.1795 1.34224 -3.88782 0.484812
lowerback 8.83603 -0.0948131 -1.94899
upperback 1.49567 -0.124872 5.01503
thorax -3.38771 -0.0191206 6.37345
lowerneck -15.6386 2.82763 7.10309
upperneck 18.4498 4.51713 -11.0747
head 8.75978 1.49409 -4.4149
rclavicle -9.93923e-016 1.90833e-014
rhumerus -26.6151 -24.6486 -6.72503
rradius 39.9251
rwrist -4.89551
rhand -19.814 0.736262
rfingers 7.12502
rthumb 6.51939 -29.1434
lclavicle -9.93923e-016 1.90833e-014
lhumerus -28.7064 26.5993 20.4819
lradius 40.6457
lwrist 9.39439
lhand -17.8666 5.23686
lfingers 7.12502
lthumb 8.39907 35.0499
rfemur -10.0212 -1.12709 10.3909
rtibia 49.063
rfoot -13.4051 -12.1958
rtoes -17.161
lfemur -7.36273 -0.978408 -16.947
ltibia 33.5069
lfoot -16.8882 15.9588
ltoes -15.2701
